<svg width="25" height="25" viewBox="0 0 25 25" fill="none" xmlns="http://www.w3.org/2000/svg">
<g clip-path="url(#clip0)">
<path d="M13.7654 12.0023L1.67368 24.094C1.09565 23.5472 0.783203 22.7973 0.783203 21.985V3.01942C0.783203 2.19143 1.11127 1.44156 1.70492 0.87915L13.7654 12.0023Z" fill="#2196F3"/>
<path d="M24.2168 12.5021C24.2168 13.5957 23.6232 14.5642 22.6389 15.111L19.202 17.017L14.9371 13.0801L13.7654 12.0022L18.2803 7.4873L22.6389 9.89315C23.6232 10.4399 24.2168 11.4085 24.2168 12.5021Z" fill="#FFC107"/>
<path d="M13.7654 12.0022L1.70496 0.879075C1.86118 0.722852 2.06427 0.58225 2.26736 0.457271C3.25157 -0.136379 4.43887 -0.152002 5.45433 0.410404L18.2803 7.48734L13.7654 12.0022Z" fill="#4CAF50"/>
<path d="M19.202 17.017L5.45432 24.5938C4.97003 24.875 4.42324 25 3.89208 25C3.32968 25 2.76727 24.8594 2.26736 24.547C2.04864 24.422 1.84555 24.2658 1.67371 24.0939L13.7654 12.0022L14.9371 13.0801L19.202 17.017Z" fill="#F44336"/>
</g>
<defs>
<clipPath id="clip0">
<rect width="25" height="25" fill="white"/>
</clipPath>
</defs>
</svg>
