<svg width="22" height="25" viewBox="0 0 22 25" fill="none" xmlns="http://www.w3.org/2000/svg">
<g clip-path="url(#clip0)">
<path d="M8.64953 2.4293L0.399528 3.64703C0.169516 3.68077 -0.00205826 3.90435 -0.000167632 4.16788V11.4595C-0.000167632 11.7472 0.205051 11.9804 0.45818 11.9804H8.70818C8.96131 11.9804 9.16653 11.7472 9.16653 11.4595V2.94493C9.16636 2.79532 9.1096 2.65303 9.01068 2.5543C8.91104 2.45694 8.78003 2.41158 8.64953 2.4293Z" fill="#F44336"/>
<path d="M21.9274 0.652216C21.8292 0.55163 21.6976 0.504169 21.5663 0.521991L10.5663 2.15222C10.3363 2.18596 10.1647 2.40954 10.1666 2.67307V11.4595C10.1666 11.7472 10.3719 11.9804 10.625 11.9804H21.625C21.8781 11.9804 22.0833 11.7472 22.0833 11.4595V1.04284C22.0831 0.893231 22.0263 0.750946 21.9274 0.652216Z" fill="#4CAF50"/>
<path d="M8.70824 12.9805H0.458241C0.205112 12.9805 -0.000106597 13.2137 -0.000106597 13.5013V20.793C-0.00199722 21.0565 0.169577 21.2801 0.399546 21.3138L8.64955 22.5367C8.6691 22.5382 8.68869 22.5382 8.7082 22.5367C8.96133 22.5367 9.16655 22.3035 9.16655 22.0159V13.5013C9.16659 13.2137 8.96137 12.9805 8.70824 12.9805Z" fill="#2196F3"/>
<path d="M21.6249 12.9805H10.6249C10.3717 12.9805 10.1665 13.2137 10.1665 13.5013V22.2878C10.1646 22.5513 10.3362 22.7749 10.5662 22.8086L21.5662 24.4389C21.5857 24.4404 21.6053 24.4404 21.6248 24.4389C21.8779 24.4389 22.0832 24.2057 22.0832 23.918V13.5013C22.0832 13.2137 21.878 12.9805 21.6249 12.9805Z" fill="#FFC107"/>
</g>
<defs>
<clipPath id="clip0">
<rect width="22" height="25" fill="white"/>
</clipPath>
</defs>
</svg>
