<svg width="40" height="40" viewBox="0 0 40 40" fill="none" xmlns="http://www.w3.org/2000/svg">
<path d="M19.9999 21.6464C25.9774 21.6464 30.8231 16.8007 30.8231 10.8232C30.8231 4.84562 25.9774 0 19.9999 0C14.0224 0 9.17676 4.8457 9.17676 10.8232C9.18409 16.7976 14.0255 21.6391 19.9999 21.6464ZM19.9999 4.99533C23.2185 4.99533 25.8278 7.60453 25.8278 10.8232C25.8278 14.0419 23.2186 16.6511 19.9999 16.6511C16.7812 16.6511 14.172 14.0419 14.172 10.8232C14.172 7.60453 16.7813 4.99533 19.9999 4.99533Z" fill="#FF9800"/>
<path d="M30.6017 26.7749C31.778 26.0002 32.4867 24.6867 32.4883 23.2782C32.5047 22.1093 31.8451 21.0359 30.7949 20.5224C29.7159 19.9835 28.4243 20.1049 27.4647 20.8355C23.0171 24.078 16.9846 24.078 12.537 20.8355C11.5759 20.1087 10.2865 19.9875 9.20677 20.5224C8.15705 21.0359 7.49712 22.1081 7.51171 23.2765C7.51421 24.6847 8.22269 25.9979 9.39831 26.7732C10.9066 27.7763 12.5491 28.5611 14.2771 29.1044C14.5702 29.1954 14.8726 29.2798 15.1846 29.3575L10.1527 34.2779C8.83266 35.5587 8.80074 37.667 10.0815 38.987C11.3623 40.3071 13.4705 40.339 14.7906 39.0582C14.8181 39.0315 14.8451 39.0045 14.8716 38.9768L20.0002 33.6684L25.1387 38.9868C26.4184 40.3078 28.5267 40.3414 29.8478 39.0617C31.1688 37.7821 31.2024 35.6737 29.9227 34.3527C29.8959 34.3251 29.8687 34.2979 29.841 34.2712L24.8173 29.3558C25.1292 29.2759 25.4328 29.191 25.7281 29.1011C27.4542 28.5598 29.0952 27.7767 30.6017 26.7749Z" fill="#FF9800"/>
</svg>
